<svg xmlns="http://www.w3.org/2000/svg" width="900" height="500" viewBox="0 0 900 500" role="img" aria-labelledby="title desc">
  <title id="title">Mean executable score across 48 paired task-seed observations</title>
  <desc id="desc">H0 0.6014, H1 0.6653, H2 0.5986, and static high effort 0.6910.</desc>
  <rect width="900" height="500" fill="#fbfbfd"/>
  <text x="70" y="44" font-family="sans-serif" font-size="21" font-weight="700" fill="#18212f">One revision helped; the second did not clear H0 or static scaling</text>
  <text x="70" y="72" font-family="sans-serif" font-size="15" fill="#52606d">Mean hidden-test score · 6 independent seeds × 8 tasks · higher is better</text>
  <line x1="90" y1="405" x2="790" y2="405" stroke="#263238" stroke-width="2"/>
  <line x1="90" y1="105" x2="90" y2="405" stroke="#263238" stroke-width="2"/>
  <g font-family="sans-serif" font-size="13" fill="#52606d">
    <line x1="85" y1="405" x2="790" y2="405" stroke="#d8dee6"/><text x="48" y="410">0.0</text>
    <line x1="85" y1="330" x2="790" y2="330" stroke="#d8dee6"/><text x="48" y="335">0.2</text>
    <line x1="85" y1="255" x2="790" y2="255" stroke="#d8dee6"/><text x="48" y="260">0.4</text>
    <line x1="85" y1="180" x2="790" y2="180" stroke="#d8dee6"/><text x="48" y="185">0.6</text>
    <line x1="85" y1="105" x2="790" y2="105" stroke="#d8dee6"/><text x="48" y="110">0.8</text>
  </g>
  <rect x="130" y="179.48" width="100" height="225.52" rx="5" fill="#7386a5"/>
  <rect x="300" y="155.52" width="100" height="249.48" rx="5" fill="#4f83cc"/>
  <rect x="470" y="180.52" width="100" height="224.48" rx="5" fill="#d06b4f"/>
  <rect x="640" y="145.89" width="100" height="259.11" rx="5" fill="#3f9b75"/>
  <g font-family="sans-serif" text-anchor="middle">
    <text x="180" y="168" font-size="18" font-weight="700" fill="#25364d">0.6014</text>
    <text x="350" y="144" font-size="18" font-weight="700" fill="#25364d">0.6653</text>
    <text x="520" y="169" font-size="18" font-weight="700" fill="#25364d">0.5986</text>
    <text x="690" y="135" font-size="18" font-weight="700" fill="#25364d">0.6910</text>
    <text x="180" y="432" font-size="16" fill="#18212f">H0 initial</text>
    <text x="350" y="432" font-size="16" fill="#18212f">H1 revision</text>
    <text x="520" y="432" font-size="16" fill="#18212f">H2 revision</text>
    <text x="690" y="432" font-size="15" fill="#18212f">Static high effort</text>
  </g>
  <text x="450" y="474" font-family="sans-serif" font-size="14" text-anchor="middle" fill="#52606d">Seed-cluster bootstrap: H2−H0 −0.0028 [−0.0778, 0.0750] · H2−static −0.0924 [−0.1208, −0.0625]</text>
</svg>
